<?xml version="1.0" standalone="no"?>
<!DOCTYPE svg PUBLIC "-//W3C//DTD SVG 20010904//EN"
 "http://www.w3.org/TR/2001/REC-SVG-20010904/DTD/svg10.dtd">
<svg version="1.0" xmlns="http://www.w3.org/2000/svg"
 width="931.000000pt" height="909.000000pt" viewBox="0 0 931.000000 909.000000"
 preserveAspectRatio="xMidYMid meet">

<g transform="translate(0.000000,909.000000) scale(0.100000,-0.100000)"
fill="#000000" stroke="none">
<path d="M0 4545 l0 -4545 4655 0 4655 0 0 4545 0 4545 -4655 0 -4655 0 0
-4545z m3114 2801 c8 -6 58 -87 111 -181 113 -196 274 -475 301 -522 11 -18
22 -33 25 -33 3 0 13 26 23 58 108 346 426 531 776 450 80 -18 206 -85 267
-142 l57 -53 65 66 c109 109 246 159 406 147 293 -21 502 -189 591 -473 10
-35 21 -63 24 -63 3 0 30 44 61 98 31 53 127 222 215 374 l159 277 40 6 c22 4
80 5 128 3 l87 -3 0 -2050 c0 -1127 -3 -2052 -8 -2055 -4 -3 -55 -4 -114 -2
l-108 3 -2 1837 -3 1837 -66 -115 c-209 -366 -343 -596 -350 -605 -5 -5 -9
-522 -9 -1180 0 -1274 -1 -1251 57 -1356 29 -54 130 -155 170 -170 52 -19 43
-66 -27 -136 -96 -95 -229 -139 -330 -110 -148 44 -250 219 -279 480 -7 61
-11 399 -11 909 0 687 -2 809 -14 793 -7 -11 -57 -96 -111 -190 -54 -93 -161
-278 -237 -409 l-139 -239 1 -601 c0 -381 4 -604 10 -610 19 -19 10 -37 -36
-66 -71 -45 -162 -71 -252 -73 -87 -2 -127 12 -136 47 -3 11 -6 308 -6 658 l0
637 -54 93 c-206 357 -355 616 -399 691 l-52 88 -6 -848 c-5 -818 -6 -851 -27
-939 -61 -263 -173 -393 -370 -425 -150 -25 -266 39 -301 166 -24 89 -13 115
49 115 90 0 144 41 180 135 48 129 50 169 50 1393 l0 1142 -24 39 c-24 38
-246 422 -338 584 -27 48 -53 87 -59 87 -5 0 -10 -706 -11 -1832 l-3 -1832
-22 1 c-13 0 -63 1 -113 2 l-90 1 0 2048 c0 1127 3 2052 7 2056 12 11 232 4
247 -8z m57 -5316 l127 -315 36 -9 c24 -5 36 -13 34 -23 -4 -19 -253 -22 -253
-2 0 7 16 18 35 24 20 8 34 18 32 26 -7 32 -56 150 -65 156 -16 9 -99 13 -158
7 l-56 -6 -27 -76 c-14 -42 -26 -82 -26 -88 0 -6 14 -15 31 -20 60 -17 35 -29
-68 -32 -82 -2 -103 0 -103 11 0 7 17 18 37 23 l37 9 62 175 c35 96 82 229
105 295 23 66 46 130 50 143 22 58 42 23 170 -298z m3379 -1 l126 -313 37 -9
c34 -8 50 -31 27 -39 -5 -1 -64 -2 -130 0 -87 2 -120 6 -117 15 2 6 18 16 35
21 18 5 32 15 32 22 0 11 -49 153 -56 162 -5 7 -160 13 -191 7 -29 -5 -33 -11
-57 -83 -14 -42 -26 -82 -26 -89 0 -6 14 -14 30 -18 17 -4 30 -13 30 -21 0
-12 -52 -14 -335 -14 -275 0 -335 2 -335 14 0 7 15 17 33 22 l32 10 3 281 2
282 -35 7 c-25 4 -35 11 -35 25 0 18 9 19 118 19 65 0 121 -3 125 -6 11 -11
-5 -34 -23 -34 -51 0 -50 8 -50 -291 l0 -280 112 3 112 3 11 53 c7 29 16 56
19 60 16 16 36 -34 36 -89 l0 -58 42 12 42 13 48 134 c26 74 75 214 109 310
58 167 72 194 94 187 5 -2 66 -145 135 -318z m-4456 284 c4 -10 45 -117 91
-238 46 -121 86 -229 90 -240 5 -15 15 2 40 70 18 50 62 164 98 255 l65 165
78 3 c42 2 83 1 90 -2 20 -8 5 -36 -20 -36 -46 0 -48 -7 -35 -156 6 -76 16
-202 23 -279 l11 -139 38 -9 c21 -5 37 -15 37 -23 0 -11 -24 -14 -125 -14
-104 0 -125 2 -125 15 0 8 6 15 14 15 8 0 25 4 38 9 l24 9 -17 184 c-10 100
-19 204 -21 230 -4 41 -18 81 -18 50 0 -12 -30 -91 -130 -342 -43 -108 -62
-145 -75 -145 -13 0 -35 42 -87 165 -39 91 -84 202 -102 247 -17 46 -34 83
-37 83 -6 0 -10 -59 -25 -352 l-7 -127 37 -6 c21 -4 36 -13 36 -21 0 -12 -19
-14 -100 -12 -102 3 -131 15 -73 30 18 5 35 13 38 18 3 6 13 108 20 228 8 119
17 243 19 274 l5 57 -34 7 c-25 4 -35 11 -35 25 0 17 8 19 84 19 71 0 85 -3
90 -17z m1544 0 c-2 -11 -18 -21 -41 -26 l-37 -9 2 -281 3 -280 35 -12 c19 -6
35 -16 35 -21 0 -5 -55 -10 -122 -12 -101 -2 -123 0 -123 12 0 8 15 16 35 20
l35 7 0 285 0 285 -30 6 c-17 3 -33 10 -36 14 -14 23 15 29 127 29 108 0 120
-2 117 -17z m315 11 c11 -11 -5 -34 -23 -34 -51 0 -50 8 -50 -291 l0 -280 112
3 112 3 14 58 c24 96 52 70 52 -50 l0 -63 -220 0 c-121 0 -223 0 -227 -1 -5 0
-9 7 -11 15 -2 10 8 17 32 22 l36 6 0 284 0 283 -35 7 c-25 4 -35 11 -35 25 0
18 9 19 118 19 65 0 121 -3 125 -6z m775 -232 c50 -130 93 -246 97 -257 5 -15
15 2 40 70 18 50 62 164 98 255 l65 165 78 3 c42 2 83 1 90 -2 20 -8 5 -36
-20 -36 -50 -1 -50 2 -24 -296 l23 -278 38 -9 c73 -18 35 -32 -91 -35 -100 -2
-122 0 -122 12 0 8 15 16 35 20 33 7 35 9 35 49 0 23 -7 105 -15 182 -8 77
-15 166 -15 198 0 31 -4 57 -10 57 -5 0 -10 -6 -10 -12 0 -7 -43 -119 -94
-248 -60 -152 -99 -236 -109 -238 -19 -4 -47 58 -187 406 -20 51 -39 95 -42
97 -5 5 -13 -103 -24 -341 l-7 -141 37 -7 c21 -4 36 -13 36 -21 0 -19 -197
-26 -205 -7 -4 11 31 32 55 32 5 0 11 4 14 8 2 4 12 111 20 237 9 127 18 251
21 277 4 47 4 47 -31 54 -24 4 -34 12 -34 25 0 16 9 18 83 18 l84 0 91 -237z
m820 220 c-2 -9 -19 -20 -41 -25 l-37 -9 2 -281 3 -281 33 -8 c22 -6 32 -14
30 -24 -4 -22 -231 -23 -236 -1 -2 10 9 17 32 21 l36 7 0 284 0 283 -30 7
c-32 7 -45 19 -35 35 3 5 59 9 126 9 106 -1 120 -3 117 -17z m1566 7 c50 -13
101 -51 127 -93 23 -37 25 -122 5 -169 -29 -70 -115 -115 -232 -124 l-75 -6 3
-106 3 -105 43 -9 c26 -5 42 -14 42 -23 0 -11 -23 -14 -130 -14 -107 0 -130 3
-130 15 0 8 14 17 35 21 l35 6 0 284 0 283 -35 7 c-32 6 -44 21 -29 37 11 10
295 7 338 -4z"/>
<path d="M4116 6738 c-58 -16 -118 -81 -146 -159 -22 -60 -24 -81 -28 -356
l-4 -291 79 -139 c165 -287 416 -718 424 -727 12 -14 11 1299 -1 1394 -15 116
-38 178 -84 226 -59 60 -140 78 -240 52z"/>
<path d="M5036 6736 c-76 -29 -122 -96 -152 -224 -13 -57 -16 -165 -15 -756 1
-379 2 -691 4 -692 2 -2 52 83 112 187 61 105 126 219 146 253 19 33 82 141
138 239 l103 177 -4 298 c-4 241 -7 306 -21 347 -24 72 -64 130 -110 155 -50
28 -147 36 -201 16z"/>
<path d="M2964 2074 c-25 -75 -37 -124 -30 -124 6 0 44 -2 83 -4 40 -3 74 -1
77 2 2 4 -14 52 -35 107 -21 55 -38 108 -39 117 -1 46 -19 14 -56 -98z"/>
<path d="M6345 2083 c-20 -65 -38 -121 -39 -126 -1 -9 162 -18 168 -8 3 4 -4
25 -14 48 -10 22 -30 76 -45 119 -15 44 -28 80 -30 82 -1 1 -19 -51 -40 -115z"/>
<path d="M6953 2283 c-10 -3 -13 -44 -13 -153 l0 -148 33 -6 c71 -12 149 24
173 79 35 85 6 181 -66 217 -33 17 -100 23 -127 11z"/>
</g>
</svg>
